0
SECTION
2
HEADER
9
$INSUNITS
70
1
9
$ACADVER
1
AC1014
9
$HANDSEED
5
FFFF
0
ENDSEC
0
SECTION
2
TABLES
0
TABLE
2
VPORT
5
8
100
AcDbSymbolTable
0
ENDTAB
0
TABLE
2
LTYPE
5
5
100
AcDbSymbolTable
0
LTYPE
5
14
100
AcDbSymbolTableRecord
100
AcDbLinetypeTableRecord
2
BYBLOCK
70
0
0
LTYPE
5
15
100
AcDbSymbolTableRecord
100
AcDbLinetypeTableRecord
2
BYLAYER
70
0
0
ENDTAB
0
TABLE
2
LAYER
5
2
100
AcDbSymbolTable
70
2
0
LAYER
5
50
100
AcDbSymbolTableRecord
100
AcDbLayerTableRecord
2
0
70
0
6
CONTINUOUS
0
ENDTAB
0
TABLE
2
STYLE
5
3
100
AcDbSymbolTable
70
1
0
STYLE
5
11
100
AcDbSymbolTableRecord
100
AcDbTextStyleTableRecord
2
STANDARD
70
0
0
ENDTAB
0
TABLE
2
VIEW
5
6
100
AcDbSymbolTable
70
0
0
ENDTAB
0
TABLE
2
UCS
5
7
100
AcDbSymbolTable
70
0
0
ENDTAB
0
TABLE
2
APPID
5
9
100
AcDbSymbolTable
70
2
0
APPID
5
12
100
AcDbSymbolTableRecord
100
AcDbRegAppTableRecord
2
ACAD
70
0
0
ENDTAB
0
TABLE
2
DIMSTYLE
5
A
100
AcDbSymbolTable
70
1
0
ENDTAB
0
TABLE
2
BLOCK_RECORD
5
1
100
AcDbSymbolTable
70
1
0
BLOCK_RECORD
5
1F
100
AcDbSymbolTableRecord
100
AcDbBlockTableRecord
2
*MODEL_SPACE
0
BLOCK_RECORD
5
1B
100
AcDbSymbolTableRecord
100
AcDbBlockTableRecord
2
*PAPER_SPACE
0
ENDTAB
0
ENDSEC
0
SECTION
2
BLOCKS
0
BLOCK
5
20
100
AcDbEntity
100
AcDbBlockBegin
2
*MODEL_SPACE
0
ENDBLK
5
21
100
AcDbEntity
100
AcDbBlockEnd
0
BLOCK
5
1C
100
AcDbEntity
100
AcDbBlockBegin
2
*PAPER_SPACE
0
ENDBLK
5
1D
100
AcDbEntity
100
AcDbBlockEnd
0
ENDSEC
0
SECTION
2
ENTITIES
0
LWPOLYLINE
5
100
100
AcDbEntity
8
0
100
AcDbPolyline
90
8
70
1
43
0.0
10
-79.000000000000028
20
-34
42
-0.41421356237309503
10
-80.000000000000028
20
-33
10
-80.000000000000014
20
33
42
-0.41421356237309503
10
-79.000000000000028
20
33.999999999999986
10
79.000000000000028
20
33.999999999999986
42
-0.41421356237309503
10
80.000000000000014
20
33
10
80.000000000000014
20
-33
42
-0.41421356237309503
10
79.000000000000028
20
-33.999999999999986
0
LWPOLYLINE
5
101
100
AcDbEntity
8
0
100
AcDbPolyline
90
8
70
1
43
0.0
10
-0.62500000000000511
20
7.9999999999999982
10
-0.625000000000006
20
15.999999999999998
42
0.41421356237309626
10
-1.6250000000000047
20
17
10
-19.875000000000004
20
17
42
0.41421356237309176
10
-20.875000000000007
20
15.999999999999998
10
-20.875000000000004
20
7.9999999999999982
42
0.41421356237309342
10
-19.875000000000004
20
6.9999999999999973
10
-1.6250000000000049
20
6.9999999999999982
42
0.41421356237309553
0
LWPOLYLINE
5
102
100
AcDbEntity
8
0
100
AcDbPolyline
90
8
70
1
43
0.0
10
19.624999999999993
20
7.9999999999999982
10
19.624999999999993
20
15.999999999999998
42
0.41421356237309176
10
18.624999999999993
20
17
10
1.6249999999999938
20
17
42
0.41421356237309681
10
0.62499999999999367
20
15.999999999999998
10
0.62499999999999467
20
7.9999999999999982
42
0.4142135623730952
10
1.6249999999999933
20
6.9999999999999973
10
18.624999999999993
20
6.9999999999999982
42
0.41421356237309342
0
LWPOLYLINE
5
103
100
AcDbEntity
8
0
100
AcDbPolyline
90
8
70
1
43
0.0
10
39.874999999999993
20
7.9999999999999982
10
39.874999999999993
20
15.999999999999998
42
0.41421356237309587
10
38.875
20
17
10
21.874999999999993
20
17
42
0.41421356237309176
10
20.874999999999989
20
15.999999999999998
10
20.874999999999993
20
7.9999999999999982
42
0.41421356237309342
10
21.874999999999993
20
6.9999999999999973
10
38.875
20
6.9999999999999982
42
0.41421356237309587
0
LWPOLYLINE
5
104
100
AcDbEntity
8
0
100
AcDbPolyline
90
8
70
1
43
0.0
10
-22.125000000000004
20
7.9999999999999982
10
-22.125000000000004
20
15.999999999999998
42
0.41421356237309176
10
-23.125000000000004
20
17
10
-40.125
20
17
42
0.41421356237309914
10
-41.124999999999993
20
15.999999999999998
10
-41.125
20
7.9999999999999982
42
0.41421356237309792
10
-40.125
20
6.9999999999999973
10
-23.125000000000004
20
6.9999999999999982
42
0.41421356237309342
0
LWPOLYLINE
5
105
100
AcDbEntity
8
0
100
AcDbPolyline
90
8
70
1
43
0.0
10
-60.374999999999993
20
6.9999999999999885
42
-0.41421356237309503
10
-61.375
20
7.9999999999999964
10
-61.374999999999986
20
15.999999999999991
42
-0.41421356237309748
10
-60.374999999999993
20
17
10
-43.375
20
17
42
-0.41421356237309837
10
-42.375
20
15.999999999999998
10
-42.375
20
7.9999999999999982
42
-0.41421356237309548
10
-43.375
20
6.9999999999999947
0
CIRCLE
5
106
100
AcDbEntity
8
0
100
AcDbCircle
10
-59.842519683463479
20
-8.9939999999991063
30
0
40
0.13385826771653817
210
0
220
0
230
1
0
CIRCLE
5
107
100
AcDbEntity
8
0
100
AcDbCircle
10
-56.692913383463491
20
-8.9939999999991063
30
0
40
0.13385826771653817
210
0
220
0
230
1
0
CIRCLE
5
108
100
AcDbEntity
8
0
100
AcDbCircle
10
-53.543307083463489
20
-8.9939999999991063
30
0
40
0.13385826771653817
210
0
220
0
230
1
0
CIRCLE
5
109
100
AcDbEntity
8
0
100
AcDbCircle
10
-50.393700783463494
20
-8.9939999999991045
30
0
40
0.13385826771653817
210
0
220
0
230
1
0
CIRCLE
5
110
100
AcDbEntity
8
0
100
AcDbCircle
10
-47.244094483463485
20
-8.9939999999991045
30
0
40
0.13385826771653817
210
0
220
0
230
1
0
CIRCLE
5
111
100
AcDbEntity
8
0
100
AcDbCircle
10
-44.094488183463483
20
-8.9939999999991045
30
0
40
0.13385826771653817
210
0
220
0
230
1
0
CIRCLE
5
112
100
AcDbEntity
8
0
100
AcDbCircle
10
-40.944881883463481
20
-8.9939999999991045
30
0
40
0.13385826771653817
210
0
220
0
230
1
0
CIRCLE
5
113
100
AcDbEntity
8
0
100
AcDbCircle
10
-37.795275583463493
20
-8.9939999999991045
30
0
40
0.13385826771653817
210
0
220
0
230
1
0
CIRCLE
5
114
100
AcDbEntity
8
0
100
AcDbCircle
10
-34.645669283463491
20
-8.9939999999991045
30
0
40
0.13385826771653817
210
0
220
0
230
1
0
CIRCLE
5
115
100
AcDbEntity
8
0
100
AcDbCircle
10
-31.496062983463485
20
-8.9939999999991045
30
0
40
0.13385826771653817
210
0
220
0
230
1
0
CIRCLE
5
116
100
AcDbEntity
8
0
100
AcDbCircle
10
-28.34645668346349
20
-8.9939999999991045
30
0
40
0.13385826771653817
210
0
220
0
230
1
0
CIRCLE
5
117
100
AcDbEntity
8
0
100
AcDbCircle
10
-25.196850383463488
20
-8.9939999999991045
30
0
40
0.13385826771653817
210
0
220
0
230
1
0
CIRCLE
5
118
100
AcDbEntity
8
0
100
AcDbCircle
10
-22.047244083463493
20
-8.9939999999991045
30
0
40
0.13385826771653817
210
0
220
0
230
1
0
CIRCLE
5
119
100
AcDbEntity
8
0
100
AcDbCircle
10
-18.897637783463495
20
-8.9939999999991045
30
0
40
0.13385826771653817
210
0
220
0
230
1
0
CIRCLE
5
120
100
AcDbEntity
8
0
100
AcDbCircle
10
-15.748031483463496
20
-8.9939999999991045
30
0
40
0.13385826771653817
210
0
220
0
230
1
0
CIRCLE
5
121
100
AcDbEntity
8
0
100
AcDbCircle
10
-12.598425183463494
20
-8.9939999999991009
30
0
40
0.13385826771653817
210
0
220
0
230
1
0
CIRCLE
5
122
100
AcDbEntity
8
0
100
AcDbCircle
10
-9.4488188834634972
20
-8.9939999999991009
30
0
40
0.13385826771653817
210
0
220
0
230
1
0
CIRCLE
5
123
100
AcDbEntity
8
0
100
AcDbCircle
10
-6.299212583463496
20
-8.9939999999991009
30
0
40
0.13385826771653817
210
0
220
0
230
1
0
CIRCLE
5
124
100
AcDbEntity
8
0
100
AcDbCircle
10
-3.1496062834635015
20
-8.9939999999991009
30
0
40
0.13385826771653817
210
0
220
0
230
1
0
CIRCLE
5
125
100
AcDbEntity
8
0
100
AcDbCircle
10
1.6536500952470732e-08
20
-8.9939999999991009
30
0
40
0.13385826771653817
210
0
220
0
230
1
0
CIRCLE
5
126
100
AcDbEntity
8
0
100
AcDbCircle
10
3.1496063165365036
20
-8.9939999999991009
30
0
40
0.13385826771653817
210
0
220
0
230
1
0
CIRCLE
5
127
100
AcDbEntity
8
0
100
AcDbCircle
10
6.2992126165364972
20
-8.9939999999991009
30
0
40
0.13385826771653817
210
0
220
0
230
1
0
CIRCLE
5
128
100
AcDbEntity
8
0
100
AcDbCircle
10
9.4488189165365011
20
-8.9939999999991009
30
0
40
0.13385826771653817
210
0
220
0
230
1
0
CIRCLE
5
129
100
AcDbEntity
8
0
100
AcDbCircle
10
12.598425216536494
20
-8.9939999999991009
30
0
40
0.13385826771653817
210
0
220
0
230
1
0
CIRCLE
5
130
100
AcDbEntity
8
0
100
AcDbCircle
10
15.748031516536496
20
-8.9939999999991009
30
0
40
0.13385826771653817
210
0
220
0
230
1
0
CIRCLE
5
131
100
AcDbEntity
8
0
100
AcDbCircle
10
18.897637816536502
20
-8.9939999999991009
30
0
40
0.13385826771653817
210
0
220
0
230
1
0
CIRCLE
5
132
100
AcDbEntity
8
0
100
AcDbCircle
10
22.047244116536501
20
-8.9939999999991009
30
0
40
0.13385826771653817
210
0
220
0
230
1
0
CIRCLE
5
133
100
AcDbEntity
8
0
100
AcDbCircle
10
25.196850416536503
20
-8.9939999999991009
30
0
40
0.13385826771653817
210
0
220
0
230
1
0
CIRCLE
5
134
100
AcDbEntity
8
0
100
AcDbCircle
10
28.34645671653649
20
-8.9939999999991009
30
0
40
0.13385826771653817
210
0
220
0
230
1
0
CIRCLE
5
135
100
AcDbEntity
8
0
100
AcDbCircle
10
31.496063016536493
20
-8.9939999999991009
30
0
40
0.13385826771653817
210
0
220
0
230
1
0
CIRCLE
5
136
100
AcDbEntity
8
0
100
AcDbCircle
10
34.645669316536498
20
-8.9939999999991009
30
0
40
0.13385826771653817
210
0
220
0
230
1
0
CIRCLE
5
137
100
AcDbEntity
8
0
100
AcDbCircle
10
37.7952756165365
20
-8.9939999999991009
30
0
40
0.13385826771653817
210
0
220
0
230
1
0
CIRCLE
5
138
100
AcDbEntity
8
0
100
AcDbCircle
10
40.944881916536502
20
-8.9939999999991009
30
0
40
0.13385826771653817
210
0
220
0
230
1
0
CIRCLE
5
139
100
AcDbEntity
8
0
100
AcDbCircle
10
44.094488216536483
20
-8.9939999999991009
30
0
40
0.13385826771653817
210
0
220
0
230
1
0
CIRCLE
5
140
100
AcDbEntity
8
0
100
AcDbCircle
10
47.244094516536492
20
-8.9939999999990992
30
0
40
0.13385826771653817
210
0
220
0
230
1
0
CIRCLE
5
141
100
AcDbEntity
8
0
100
AcDbCircle
10
50.393700816536487
20
-8.9939999999990992
30
0
40
0.13385826771653817
210
0
220
0
230
1
0
CIRCLE
5
142
100
AcDbEntity
8
0
100
AcDbCircle
10
53.543307116536489
20
-8.9939999999990992
30
0
40
0.13385826771653817
210
0
220
0
230
1
0
CIRCLE
5
143
100
AcDbEntity
8
0
100
AcDbCircle
10
56.692913416536491
20
-8.9939999999990992
30
0
40
0.13385826771653817
210
0
220
0
230
1
0
CIRCLE
5
144
100
AcDbEntity
8
0
100
AcDbCircle
10
59.842519716536479
20
-8.9939999999990992
30
0
40
0.13385826771653817
210
0
220
0
230
1
0
CIRCLE
5
145
100
AcDbEntity
8
0
100
AcDbCircle
10
62.992126016536488
20
-8.9939999999990992
30
0
40
0.13385826771653817
210
0
220
0
230
1
0
CIRCLE
5
146
100
AcDbEntity
8
0
100
AcDbCircle
10
66.141732316536491
20
-8.9939999999990992
30
0
40
0.13385826771653817
210
0
220
0
230
1
0
CIRCLE
5
147
100
AcDbEntity
8
0
100
AcDbCircle
10
-59.842519683464253
20
19.750000000000899
30
0
40
0.13385826771653817
210
0
220
0
230
1
0
CIRCLE
5
148
100
AcDbEntity
8
0
100
AcDbCircle
10
-56.692913383464251
20
19.750000000000899
30
0
40
0.13385826771653817
210
0
220
0
230
1
0
CIRCLE
5
149
100
AcDbEntity
8
0
100
AcDbCircle
10
-53.543307083464249
20
19.750000000000899
30
0
40
0.13385826771653817
210
0
220
0
230
1
0
CIRCLE
5
150
100
AcDbEntity
8
0
100
AcDbCircle
10
-50.393700783464254
20
19.750000000000899
30
0
40
0.13385826771653817
210
0
220
0
230
1
0
CIRCLE
5
151
100
AcDbEntity
8
0
100
AcDbCircle
10
-47.244094483464252
20
19.750000000000899
30
0
40
0.13385826771653817
210
0
220
0
230
1
0
CIRCLE
5
152
100
AcDbEntity
8
0
100
AcDbCircle
10
-44.09448818346425
20
19.750000000000899
30
0
40
0.13385826771653817
210
0
220
0
230
1
0
CIRCLE
5
153
100
AcDbEntity
8
0
100
AcDbCircle
10
-40.944881883464248
20
19.750000000000899
30
0
40
0.13385826771653817
210
0
220
0
230
1
0
CIRCLE
5
154
100
AcDbEntity
8
0
100
AcDbCircle
10
-37.79527558346426
20
19.750000000000899
30
0
40
0.13385826771653817
210
0
220
0
230
1
0
CIRCLE
5
155
100
AcDbEntity
8
0
100
AcDbCircle
10
-34.645669283464258
20
19.750000000000899
30
0
40
0.13385826771653817
210
0
220
0
230
1
0
CIRCLE
5
156
100
AcDbEntity
8
0
100
AcDbCircle
10
-31.49606298346426
20
19.750000000000899
30
0
40
0.13385826771653817
210
0
220
0
230
1
0
CIRCLE
5
157
100
AcDbEntity
8
0
100
AcDbCircle
10
-28.346456683464261
20
19.750000000000899
30
0
40
0.13385826771653817
210
0
220
0
230
1
0
CIRCLE
5
158
100
AcDbEntity
8
0
100
AcDbCircle
10
-25.196850383464263
20
19.750000000000899
30
0
40
0.13385826771653817
210
0
220
0
230
1
0
CIRCLE
5
159
100
AcDbEntity
8
0
100
AcDbCircle
10
-22.04724408346426
20
19.750000000000902
30
0
40
0.13385826771653817
210
0
220
0
230
1
0
CIRCLE
5
160
100
AcDbEntity
8
0
100
AcDbCircle
10
-18.897637783464269
20
19.750000000000902
30
0
40
0.13385826771653817
210
0
220
0
230
1
0
CIRCLE
5
161
100
AcDbEntity
8
0
100
AcDbCircle
10
-15.748031483464265
20
19.750000000000902
30
0
40
0.13385826771653817
210
0
220
0
230
1
0
CIRCLE
5
162
100
AcDbEntity
8
0
100
AcDbCircle
10
-12.598425183464263
20
19.750000000000902
30
0
40
0.13385826771653817
210
0
220
0
230
1
0
CIRCLE
5
163
100
AcDbEntity
8
0
100
AcDbCircle
10
-9.4488188834642663
20
19.750000000000902
30
0
40
0.13385826771653817
210
0
220
0
230
1
0
CIRCLE
5
164
100
AcDbEntity
8
0
100
AcDbCircle
10
-6.2992125834642643
20
19.750000000000902
30
0
40
0.13385826771653817
210
0
220
0
230
1
0
CIRCLE
5
165
100
AcDbEntity
8
0
100
AcDbCircle
10
-3.1496062834642711
20
19.750000000000902
30
0
40
0.13385826771653817
210
0
220
0
230
1
0
CIRCLE
5
166
100
AcDbEntity
8
0
100
AcDbCircle
10
1.6535731664075717e-08
20
19.750000000000902
30
0
40
0.13385826771653817
210
0
220
0
230
1
0
CIRCLE
5
167
100
AcDbEntity
8
0
100
AcDbCircle
10
3.1496063165357344
20
19.750000000000902
30
0
40
0.13385826771653817
210
0
220
0
230
1
0
CIRCLE
5
168
100
AcDbEntity
8
0
100
AcDbCircle
10
6.2992126165357289
20
19.750000000000902
30
0
40
0.13385826771653817
210
0
220
0
230
1
0
CIRCLE
5
169
100
AcDbEntity
8
0
100
AcDbCircle
10
9.4488189165357319
20
19.750000000000902
30
0
40
0.13385826771653817
210
0
220
0
230
1
0
CIRCLE
5
170
100
AcDbEntity
8
0
100
AcDbCircle
10
12.598425216535725
20
19.750000000000902
30
0
40
0.13385826771653817
210
0
220
0
230
1
0
CIRCLE
5
171
100
AcDbEntity
8
0
100
AcDbCircle
10
15.748031516535727
20
19.750000000000902
30
0
40
0.13385826771653817
210
0
220
0
230
1
0
CIRCLE
5
172
100
AcDbEntity
8
0
100
AcDbCircle
10
18.897637816535731
20
19.750000000000902
30
0
40
0.13385826771653817
210
0
220
0
230
1
0
CIRCLE
5
173
100
AcDbEntity
8
0
100
AcDbCircle
10
22.047244116535733
20
19.750000000000902
30
0
40
0.13385826771653817
210
0
220
0
230
1
0
CIRCLE
5
174
100
AcDbEntity
8
0
100
AcDbCircle
10
25.196850416535739
20
19.750000000000902
30
0
40
0.13385826771653817
210
0
220
0
230
1
0
CIRCLE
5
175
100
AcDbEntity
8
0
100
AcDbCircle
10
28.346456716535723
20
19.750000000000902
30
0
40
0.13385826771653817
210
0
220
0
230
1
0
CIRCLE
5
176
100
AcDbEntity
8
0
100
AcDbCircle
10
31.496063016535722
20
19.750000000000902
30
0
40
0.13385826771653817
210
0
220
0
230
1
0
CIRCLE
5
177
100
AcDbEntity
8
0
100
AcDbCircle
10
34.645669316535731
20
19.750000000000902
30
0
40
0.13385826771653817
210
0
220
0
230
1
0
CIRCLE
5
178
100
AcDbEntity
8
0
100
AcDbCircle
10
37.795275616535733
20
19.750000000000902
30
0
40
0.13385826771653817
210
0
220
0
230
1
0
CIRCLE
5
179
100
AcDbEntity
8
0
100
AcDbCircle
10
40.944881916535735
20
19.750000000000902
30
0
40
0.13385826771653817
210
0
220
0
230
1
0
CIRCLE
5
180
100
AcDbEntity
8
0
100
AcDbCircle
10
44.094488216535723
20
19.750000000000902
30
0
40
0.13385826771653817
210
0
220
0
230
1
0
CIRCLE
5
181
100
AcDbEntity
8
0
100
AcDbCircle
10
47.244094516535725
20
19.750000000000902
30
0
40
0.13385826771653817
210
0
220
0
230
1
0
CIRCLE
5
182
100
AcDbEntity
8
0
100
AcDbCircle
10
50.393700816535727
20
19.750000000000902
30
0
40
0.13385826771653817
210
0
220
0
230
1
0
CIRCLE
5
183
100
AcDbEntity
8
0
100
AcDbCircle
10
53.543307116535729
20
19.750000000000902
30
0
40
0.13385826771653817
210
0
220
0
230
1
0
CIRCLE
5
184
100
AcDbEntity
8
0
100
AcDbCircle
10
56.692913416535731
20
19.750000000000906
30
0
40
0.13385826771653817
210
0
220
0
230
1
0
CIRCLE
5
185
100
AcDbEntity
8
0
100
AcDbCircle
10
59.842519716535712
20
19.750000000000906
30
0
40
0.13385826771653817
210
0
220
0
230
1
0
CIRCLE
5
186
100
AcDbEntity
8
0
100
AcDbCircle
10
62.992126016535714
20
19.750000000000906
30
0
40
0.13385826771653817
210
0
220
0
230
1
0
CIRCLE
5
187
100
AcDbEntity
8
0
100
AcDbCircle
10
66.141732316535709
20
19.750000000000906
30
0
40
0.13385826771653817
210
0
220
0
230
1
0
CIRCLE
5
188
100
AcDbEntity
8
0
100
AcDbCircle
10
32.250000000001855
20
-24.762996057702289
30
0
40
0.15624999999999861
210
0
220
0
230
1
0
CIRCLE
5
189
100
AcDbEntity
8
0
100
AcDbCircle
10
32.250000000001855
20
-23.262996057702285
30
0
40
0.15624999999999861
210
0
220
0
230
1
0
CIRCLE
5
190
100
AcDbEntity
8
0
100
AcDbCircle
10
27.250000000001862
20
-24.762996057702274
30
0
40
0.15624999999999861
210
0
220
0
230
1
0
CIRCLE
5
191
100
AcDbEntity
8
0
100
AcDbCircle
10
27.250000000001862
20
-23.262996057702274
30
0
40
0.15624999999999861
210
0
220
0
230
1
0
CIRCLE
5
192
100
AcDbEntity
8
0
100
AcDbCircle
10
-32.250000000001819
20
-23.262996057702154
30
0
40
0.15624999999999861
210
0
220
0
230
1
0
CIRCLE
5
193
100
AcDbEntity
8
0
100
AcDbCircle
10
-27.25000000000183
20
-23.262996057702154
30
0
40
0.15624999999999861
210
0
220
0
230
1
0
CIRCLE
5
194
100
AcDbEntity
8
0
100
AcDbCircle
10
-32.250000000001819
20
-24.762996057702157
30
0
40
0.15624999999999861
210
0
220
0
230
1
0
CIRCLE
5
195
100
AcDbEntity
8
0
100
AcDbCircle
10
-27.25000000000183
20
-24.762996057702157
30
0
40
0.15624999999999861
210
0
220
0
230
1
0
LWPOLYLINE
5
196
100
AcDbEntity
8
0
100
AcDbPolyline
90
4
70
1
43
0.0
10
-0.37499999999902034
20
-17.137996057702551
10
-0.37499999999902112
20
-33.387996057702537
42
0.99999999999999989
10
0.37500000000097855
20
-33.387996057702537
10
0.37500000000097861
20
-17.137996057702548
42
0.99999999999999989
0
CIRCLE
5
197
100
AcDbEntity
8
0
100
AcDbCircle
10
67.500000000000711
20
-19.9504960577021
30
0
40
0.10050000000000292
210
0
220
0
230
1
0
CIRCLE
5
198
100
AcDbEntity
8
0
100
AcDbCircle
10
67.500000000000711
20
-18.2004960577021
30
0
40
0.10050000000000292
210
0
220
0
230
1
0
CIRCLE
5
199
100
AcDbEntity
8
0
100
AcDbCircle
10
-67.500000000000753
20
-18.200496057702122
30
0
40
0.10050000000000292
210
0
220
0
230
1
0
CIRCLE
5
200
100
AcDbEntity
8
0
100
AcDbCircle
10
-67.500000000000753
20
-19.950496057702114
30
0
40
0.10050000000000292
210
0
220
0
230
1
0
CIRCLE
5
201
100
AcDbEntity
8
0
100
AcDbCircle
10
70.250000000000739
20
-22.575496057702054
30
0
40
0.10050000000000292
210
0
220
0
230
1
0
CIRCLE
5
202
100
AcDbEntity
8
0
100
AcDbCircle
10
70.250000000000739
20
-20.825496057702054
30
0
40
0.10050000000000292
210
0
220
0
230
1
0
CIRCLE
5
203
100
AcDbEntity
8
0
100
AcDbCircle
10
-70.250000000000782
20
-20.825496057702075
30
0
40
0.10050000000000292
210
0
220
0
230
1
0
CIRCLE
5
204
100
AcDbEntity
8
0
100
AcDbCircle
10
-70.250000000000782
20
-22.575496057702068
30
0
40
0.10050000000000292
210
0
220
0
230
1
0
CIRCLE
5
205
100
AcDbEntity
8
0
100
AcDbCircle
10
73.76000393700663
20
17.549503942305545
30
0
40
0.21095000000000283
210
0
220
0
230
1
0
CIRCLE
5
206
100
AcDbEntity
8
0
100
AcDbCircle
10
72.63500393700663
20
17.549503942305542
30
0
40
0.21095000000000283
210
0
220
0
230
1
0
CIRCLE
5
207
100
AcDbEntity
8
0
100
AcDbCircle
10
72.635003937006658
20
13.049503942305543
30
0
40
0.21095000000000283
210
0
220
0
230
1
0
CIRCLE
5
208
100
AcDbEntity
8
0
100
AcDbCircle
10
73.760003937006658
20
13.049503942305556
30
0
40
0.21095000000000283
210
0
220
0
230
1
0
CIRCLE
5
209
100
AcDbEntity
8
0
100
AcDbCircle
10
73.760003937006843
20
-4.9504960576943846
30
0
40
0.21095000000000283
210
0
220
0
230
1
0
CIRCLE
5
210
100
AcDbEntity
8
0
100
AcDbCircle
10
73.7600039370068
20
-0.45049605769438578
30
0
40
0.21095000000000283
210
0
220
0
230
1
0
CIRCLE
5
211
100
AcDbEntity
8
0
100
AcDbCircle
10
72.635003937006786
20
-0.4504960576943981
30
0
40
0.21095000000000283
210
0
220
0
230
1
0
CIRCLE
5
212
100
AcDbEntity
8
0
100
AcDbCircle
10
72.697503937008079
20
-4.9504960576952488
30
0
40
0.21095000000000283
210
0
220
0
230
1
0
CIRCLE
5
213
100
AcDbEntity
8
0
100
AcDbCircle
10
-72.635003937006871
20
-0.45049605769593665
30
0
40
0.21095000000000283
210
0
220
0
230
1
0
CIRCLE
5
214
100
AcDbEntity
8
0
100
AcDbCircle
10
-73.760003937006871
20
-0.45049605769594847
30
0
40
0.21095000000000283
210
0
220
0
230
1
0
CIRCLE
5
215
100
AcDbEntity
8
0
100
AcDbCircle
10
-73.760003937006815
20
-4.9504960576959487
30
0
40
0.21095000000000283
210
0
220
0
230
1
0
CIRCLE
5
216
100
AcDbEntity
8
0
100
AcDbCircle
10
-72.635003937006829
20
-4.9504960576959363
30
0
40
0.21095000000000283
210
0
220
0
230
1
0
CIRCLE
5
217
100
AcDbEntity
8
0
100
AcDbCircle
10
-72.635003937007042
20
17.549503942304003
30
0
40
0.21095000000000283
210
0
220
0
230
1
0
CIRCLE
5
218
100
AcDbEntity
8
0
100
AcDbCircle
10
-73.760003937007056
20
17.549503942303993
30
0
40
0.21095000000000283
210
0
220
0
230
1
0
CIRCLE
5
219
100
AcDbEntity
8
0
100
AcDbCircle
10
-73.760003937007014
20
13.049503942303994
30
0
40
0.21095000000000283
210
0
220
0
230
1
0
CIRCLE
5
220
100
AcDbEntity
8
0
100
AcDbCircle
10
-72.635003937006999
20
13.049503942304009
30
0
40
0.21095000000000283
210
0
220
0
230
1
0
CIRCLE
5
221
100
AcDbEntity
8
0
100
AcDbCircle
10
-18.375000000003105
20
-20.637996057695087
30
0
40
0.25000000000000083
210
0
220
0
230
1
0
CIRCLE
5
222
100
AcDbEntity
8
0
100
AcDbCircle
10
-11.625000000003102
20
-20.63799605769508
30
0
40
0.25000000000000083
210
0
220
0
230
1
0
CIRCLE
5
223
100
AcDbEntity
8
0
100
AcDbCircle
10
-11.625000000003102
20
-27.38799605769508
30
0
40
0.25000000000000083
210
0
220
0
230
1
0
CIRCLE
5
224
100
AcDbEntity
8
0
100
AcDbCircle
10
-18.375000000003105
20
-27.387996057695084
30
0
40
0.25000000000000083
210
0
220
0
230
1
0
CIRCLE
5
225
100
AcDbEntity
8
0
100
AcDbCircle
10
11.625000000000812
20
-20.637996057695162
30
0
40
0.25000000000000083
210
0
220
0
230
1
0
CIRCLE
5
226
100
AcDbEntity
8
0
100
AcDbCircle
10
18.375000000000814
20
-20.637996057695172
30
0
40
0.25000000000000083
210
0
220
0
230
1
0
CIRCLE
5
227
100
AcDbEntity
8
0
100
AcDbCircle
10
18.375000000000814
20
-27.387996057695169
30
0
40
0.25000000000000083
210
0
220
0
230
1
0
CIRCLE
5
228
100
AcDbEntity
8
0
100
AcDbCircle
10
11.625000000000812
20
-27.387996057695158
30
0
40
0.25000000000000083
210
0
220
0
230
1
0
CIRCLE
5
229
100
AcDbEntity
8
0
100
AcDbCircle
10
-6.0000000000001776
20
-21.387996057695659
30
0
40
0.32809999999999911
210
0
220
0
230
1
0
CIRCLE
5
230
100
AcDbEntity
8
0
100
AcDbCircle
10
-6.0000000000001776
20
-25.387996057695656
30
0
40
0.32809999999999911
210
0
220
0
230
1
0
CIRCLE
5
231
100
AcDbEntity
8
0
100
AcDbCircle
10
-6.0000000000001776
20
-29.387996057695656
30
0
40
0.32809999999999911
210
0
220
0
230
1
0
CIRCLE
5
232
100
AcDbEntity
8
0
100
AcDbCircle
10
5.9999999999998286
20
-29.387996057695666
30
0
40
0.32809999999999911
210
0
220
0
230
1
0
CIRCLE
5
233
100
AcDbEntity
8
0
100
AcDbCircle
10
5.9999999999998117
20
-25.387996057695666
30
0
40
0.32809999999999911
210
0
220
0
230
1
0
CIRCLE
5
234
100
AcDbEntity
8
0
100
AcDbCircle
10
5.9999999999998286
20
-21.387996057695659
30
0
40
0.32809999999999911
210
0
220
0
230
1
0
CIRCLE
5
235
100
AcDbEntity
8
0
100
AcDbCircle
10
-63.249999999999154
20
-18.512996057695087
30
0
40
0.18750000000000008
210
0
220
0
230
1
0
CIRCLE
5
236
100
AcDbEntity
8
0
100
AcDbCircle
10
-56.249999999999154
20
-18.512996057695087
30
0
40
0.18750000000000008
210
0
220
0
230
1
0
CIRCLE
5
237
100
AcDbEntity
8
0
100
AcDbCircle
10
-53.249999999999176
20
-18.512996057695087
30
0
40
0.18750000000000008
210
0
220
0
230
1
0
CIRCLE
5
238
100
AcDbEntity
8
0
100
AcDbCircle
10
-53.249999999999176
20
-21.012996057695084
30
0
40
0.18750000000000008
210
0
220
0
230
1
0
CIRCLE
5
239
100
AcDbEntity
8
0
100
AcDbCircle
10
-44.249999999999169
20
-21.012996057695084
30
0
40
0.18750000000000008
210
0
220
0
230
1
0
CIRCLE
5
240
100
AcDbEntity
8
0
100
AcDbCircle
10
-44.249999999999169
20
-18.512996057695087
30
0
40
0.18750000000000008
210
0
220
0
230
1
0
CIRCLE
5
241
100
AcDbEntity
8
0
100
AcDbCircle
10
-32.249999999999162
20
-18.512996057695091
30
0
40
0.18750000000000008
210
0
220
0
230
1
0
CIRCLE
5
242
100
AcDbEntity
8
0
100
AcDbCircle
10
-32.249999999999162
20
-21.012996057695084
30
0
40
0.18750000000000008
210
0
220
0
230
1
0
CIRCLE
5
243
100
AcDbEntity
8
0
100
AcDbCircle
10
-23.249999999999154
20
-21.012996057695084
30
0
40
0.18750000000000008
210
0
220
0
230
1
0
CIRCLE
5
244
100
AcDbEntity
8
0
100
AcDbCircle
10
-23.249999999999154
20
-18.512996057695091
30
0
40
0.18750000000000008
210
0
220
0
230
1
0
CIRCLE
5
245
100
AcDbEntity
8
0
100
AcDbCircle
10
-20.249999999999172
20
-18.512996057695091
30
0
40
0.18750000000000008
210
0
220
0
230
1
0
CIRCLE
5
246
100
AcDbEntity
8
0
100
AcDbCircle
10
-13.249999999999174
20
-18.512996057695091
30
0
40
0.18750000000000008
210
0
220
0
230
1
0
CIRCLE
5
247
100
AcDbEntity
8
0
100
AcDbCircle
10
13.250000000000819
20
-18.512996057695105
30
0
40
0.18750000000000008
210
0
220
0
230
1
0
CIRCLE
5
248
100
AcDbEntity
8
0
100
AcDbCircle
10
20.250000000000817
20
-18.512996057695105
30
0
40
0.18750000000000008
210
0
220
0
230
1
0
CIRCLE
5
249
100
AcDbEntity
8
0
100
AcDbCircle
10
23.250000000000814
20
-18.512996057695105
30
0
40
0.18750000000000008
210
0
220
0
230
1
0
CIRCLE
5
250
100
AcDbEntity
8
0
100
AcDbCircle
10
23.250000000000814
20
-21.012996057695105
30
0
40
0.18750000000000008
210
0
220
0
230
1
0
CIRCLE
5
251
100
AcDbEntity
8
0
100
AcDbCircle
10
32.250000000000824
20
-21.012996057695105
30
0
40
0.18750000000000008
210
0
220
0
230
1
0
CIRCLE
5
252
100
AcDbEntity
8
0
100
AcDbCircle
10
32.250000000000824
20
-18.512996057695105
30
0
40
0.18750000000000008
210
0
220
0
230
1
0
CIRCLE
5
253
100
AcDbEntity
8
0
100
AcDbCircle
10
44.25000000000081
20
-18.512996057695105
30
0
40
0.18750000000000008
210
0
220
0
230
1
0
CIRCLE
5
254
100
AcDbEntity
8
0
100
AcDbCircle
10
44.25000000000081
20
-21.012996057695105
30
0
40
0.18750000000000008
210
0
220
0
230
1
0
CIRCLE
5
255
100
AcDbEntity
8
0
100
AcDbCircle
10
53.25000000000081
20
-21.012996057695105
30
0
40
0.18750000000000008
210
0
220
0
230
1
0
CIRCLE
5
256
100
AcDbEntity
8
0
100
AcDbCircle
10
53.25000000000081
20
-18.512996057695105
30
0
40
0.18750000000000008
210
0
220
0
230
1
0
CIRCLE
5
257
100
AcDbEntity
8
0
100
AcDbCircle
10
56.250000000000824
20
-18.512996057695105
30
0
40
0.18750000000000008
210
0
220
0
230
1
0
CIRCLE
5
258
100
AcDbEntity
8
0
100
AcDbCircle
10
63.25000000000081
20
-18.512996057695105
30
0
40
0.18750000000000008
210
0
220
0
230
1
0
CIRCLE
5
259
100
AcDbEntity
8
0
100
AcDbCircle
10
-75.75
20
-29.253249999999849
30
0
40
0.21095000000000283
210
0
220
0
230
1
0
CIRCLE
5
260
100
AcDbEntity
8
0
100
AcDbCircle
10
-75.75
20
-32.253249999999859
30
0
40
0.21095000000000283
210
0
220
0
230
1
0
CIRCLE
5
261
100
AcDbEntity
8
0
100
AcDbCircle
10
-69.750000000000014
20
-32.253249999999852
30
0
40
0.21095000000000283
210
0
220
0
230
1
0
CIRCLE
5
262
100
AcDbEntity
8
0
100
AcDbCircle
10
-69.750000000000014
20
-29.253249999999849
30
0
40
0.21095000000000283
210
0
220
0
230
1
0
CIRCLE
5
263
100
AcDbEntity
8
0
100
AcDbCircle
10
75.75
20
-32.253249999999852
30
0
40
0.21095000000000283
210
0
220
0
230
1
0
CIRCLE
5
264
100
AcDbEntity
8
0
100
AcDbCircle
10
75.75
20
-29.253249999999849
30
0
40
0.21095000000000283
210
0
220
0
230
1
0
CIRCLE
5
265
100
AcDbEntity
8
0
100
AcDbCircle
10
69.750000000000028
20
-29.253249999999849
30
0
40
0.21095000000000283
210
0
220
0
230
1
0
CIRCLE
5
266
100
AcDbEntity
8
0
100
AcDbCircle
10
69.750000000000028
20
-32.253249999999852
30
0
40
0.21095000000000283
210
0
220
0
230
1
0
CIRCLE
5
267
100
AcDbEntity
8
0
100
AcDbCircle
10
-54.249999999999979
20
-27.319500000000318
30
0
40
0.21095000000000283
210
0
220
0
230
1
0
CIRCLE
5
268
100
AcDbEntity
8
0
100
AcDbCircle
10
-38.249999999999979
20
-27.319500000000318
30
0
40
0.21094999999999844
210
0
220
0
230
1
0
CIRCLE
5
269
100
AcDbEntity
8
0
100
AcDbCircle
10
-38.249999999999979
20
-31.819500000000314
30
0
40
0.21094999999999844
210
0
220
0
230
1
0
CIRCLE
5
270
100
AcDbEntity
8
0
100
AcDbCircle
10
-54.249999999999979
20
-31.819500000000314
30
0
40
0.21095000000000283
210
0
220
0
230
1
0
CIRCLE
5
271
100
AcDbEntity
8
0
100
AcDbCircle
10
54.249999999999979
20
-31.819500000000314
30
0
40
0.21095000000000283
210
0
220
0
230
1
0
CIRCLE
5
272
100
AcDbEntity
8
0
100
AcDbCircle
10
38.249999999999979
20
-31.819500000000314
30
0
40
0.21094999999999844
210
0
220
0
230
1
0
CIRCLE
5
273
100
AcDbEntity
8
0
100
AcDbCircle
10
38.249999999999979
20
-27.319500000000318
30
0
40
0.21094999999999844
210
0
220
0
230
1
0
CIRCLE
5
274
100
AcDbEntity
8
0
100
AcDbCircle
10
54.249999999999979
20
-27.319500000000318
30
0
40
0.21095000000000283
210
0
220
0
230
1
0
CIRCLE
5
275
100
AcDbEntity
8
0
100
AcDbCircle
10
-79.5
20
17
30
0
40
0.21094999999999403
210
0
220
0
230
1
0
CIRCLE
5
276
100
AcDbEntity
8
0
100
AcDbCircle
10
-76.999999999999972
20
17
30
0
40
0.21095000000000283
210
0
220
0
230
1
0
CIRCLE
5
277
100
AcDbEntity
8
0
100
AcDbCircle
10
-76.999999999999972
20
7
30
0
40
0.21095000000000283
210
0
220
0
230
1
0
CIRCLE
5
278
100
AcDbEntity
8
0
100
AcDbCircle
10
-79.5
20
7
30
0
40
0.21094999999999403
210
0
220
0
230
1
0
CIRCLE
5
279
100
AcDbEntity
8
0
100
AcDbCircle
10
79.5
20
17
30
0
40
0.21094999999999403
210
0
220
0
230
1
0
CIRCLE
5
280
100
AcDbEntity
8
0
100
AcDbCircle
10
76.999999999999972
20
17
30
0
40
0.21095000000000283
210
0
220
0
230
1
0
CIRCLE
5
281
100
AcDbEntity
8
0
100
AcDbCircle
10
76.999999999999972
20
7
30
0
40
0.21095000000000283
210
0
220
0
230
1
0
CIRCLE
5
282
100
AcDbEntity
8
0
100
AcDbCircle
10
79.5
20
7
30
0
40
0.21094999999999403
210
0
220
0
230
1
0
CIRCLE
5
283
100
AcDbEntity
8
0
100
AcDbCircle
10
3.0000000000000013
20
-9.8507999999991167
30
0
40
0.18749999999999628
210
0
220
-0
230
1
0
CIRCLE
5
284
100
AcDbEntity
8
0
100
AcDbCircle
10
35.5
20
-9.8507999999991149
30
0
40
0.18749999999999575
210
0
220
-0
230
1
0
CIRCLE
5
285
100
AcDbEntity
8
0
100
AcDbCircle
10
-61.999999999999993
20
-9.8507999999991167
30
0
40
0.18750000000000008
210
0
220
-0
230
1
0
CIRCLE
5
286
100
AcDbEntity
8
0
100
AcDbCircle
10
-29.5
20
-9.8507999999991167
30
0
40
0.18749999999999575
210
0
220
-0
230
1
0
CIRCLE
5
287
100
AcDbEntity
8
0
100
AcDbCircle
10
61.999999999999993
20
-9.8507999999991043
30
0
40
0.18750000000000008
210
0
220
0
230
1
0
CIRCLE
5
288
100
AcDbEntity
8
0
100
AcDbCircle
10
29.5
20
-9.8507999999991078
30
0
40
0.18749999999999575
210
0
220
0
230
1
0
CIRCLE
5
289
100
AcDbEntity
8
0
100
AcDbCircle
10
-3.0000000000000013
20
-9.8507999999991078
30
0
40
0.18749999999999628
210
0
220
0
230
1
0
CIRCLE
5
290
100
AcDbEntity
8
0
100
AcDbCircle
10
-35.5
20
-9.8507999999991096
30
0
40
0.18749999999999575
210
0
220
0
230
1
0
CIRCLE
5
291
100
AcDbEntity
8
0
100
AcDbCircle
10
68
20
-9.8507999999991132
30
0
40
0.18750000000000008
210
0
220
-0
230
1
0
CIRCLE
5
292
100
AcDbEntity
8
0
100
AcDbCircle
10
-68
20
-9.8507999999991132
30
0
40
0.18750000000000008
210
0
220
0
230
1
0
CIRCLE
5
293
100
AcDbEntity
8
0
100
AcDbCircle
10
-62.992125983464256
20
19.750000000000899
30
0
40
0.13385826771653817
210
0
220
0
230
1
0
CIRCLE
5
294
100
AcDbEntity
8
0
100
AcDbCircle
10
-62.992125983463481
20
-8.9939999999991063
30
0
40
0.13385826771653817
210
0
220
0
230
1
0
CIRCLE
5
295
100
AcDbEntity
8
0
100
AcDbCircle
10
-66.141732283463483
20
-8.9939999999991063
30
0
40
0.13385826771653817
210
0
220
0
230
1
0
CIRCLE
5
296
100
AcDbEntity
8
0
100
AcDbCircle
10
-66.141732283464265
20
19.750000000000899
30
0
40
0.13385826771653817
210
0
220
0
230
1
0
LWPOLYLINE
5
297
100
AcDbEntity
8
0
100
AcDbPolyline
90
8
70
1
43
0.0
10
60.124999999999972
20
7.9999999999999982
10
60.124999999999972
20
15.999999999999998
42
0.41421356237309503
10
59.124999999999979
20
17
10
42.125
20
17
42
0.41421356237309837
10
41.124999999999993
20
15.999999999999998
10
41.124999999999993
20
7.9999999999999982
42
0.41421356237309548
10
42.125
20
6.9999999999999973
10
59.124999999999979
20
7.0000000000000027
42
0.41421356237309503
0
ENDSEC
0
SECTION
2
OBJECTS
0
DICTIONARY
5
C
100
AcDbDictionary
3
ACAD_GROUP
350
D
3
ACAD_MLINESTYLE
350
17
0
DICTIONARY
5
D
100
AcDbDictionary
0
DICTIONARY
5
1A
330
C
100
AcDbDictionary
0
DICTIONARY
5
17
100
AcDbDictionary
0
ENDSEC
0
EOF
